<svg width="500" height="500" viewBox="0 0 500 500" fill="none" xmlns="http://www.w3.org/2000/svg">
<circle cx="257" cy="250" r="217" fill="#ECF0FA"/>
<path d="M500 382.4H0V382.65H500V382.4Z" fill="#EBEBEB"/>
<path d="M449.9 398.49H416.78V398.74H449.9V398.49Z" fill="#EBEBEB"/>
<path d="M331.22 401.21H322.53V401.46H331.22V401.21Z" fill="#EBEBEB"/>
<path d="M415.78 389.21H396.59V389.46H415.78V389.21Z" fill="#EBEBEB"/>
<path d="M95.65 390.89H52.46V391.14H95.65V390.89Z" fill="#EBEBEB"/>
<path d="M110.89 390.89H104.56V391.14H110.89V390.89Z" fill="#EBEBEB"/>
<path d="M225.15 395.11H131.47V395.36H225.15V395.11Z" fill="#EBEBEB"/>
<path d="M237 337.8H43.91C42.3973 337.797 40.9475 337.195 39.8788 336.124C38.8102 335.054 38.21 333.603 38.21 332.09V60.66C38.2231 59.156 38.8292 57.718 39.8964 56.6582C40.9637 55.5985 42.4059 55.0026 43.91 55H237C238.514 55 239.967 55.6016 241.038 56.6724C242.108 57.7433 242.71 59.1956 242.71 60.71V332.09C242.71 333.604 242.108 335.057 241.038 336.128C239.967 337.198 238.514 337.8 237 337.8ZM43.91 55.2C42.4636 55.2026 41.0774 55.7791 40.0556 56.8027C39.0338 57.8264 38.46 59.2136 38.46 60.66V332.09C38.46 333.536 39.0338 334.924 40.0556 335.947C41.0774 336.971 42.4636 337.547 43.91 337.55H237C238.447 337.547 239.834 336.971 240.858 335.948C241.881 334.924 242.457 333.537 242.46 332.09V60.66C242.457 59.2127 241.881 57.8255 240.858 56.8021C239.834 55.7787 238.447 55.2026 237 55.2H43.91Z" fill="#EBEBEB"/>
<path d="M453.31 337.8H260.21C258.696 337.797 257.246 337.195 256.175 336.125C255.105 335.054 254.503 333.604 254.5 332.09V60.66C254.516 59.1551 255.124 57.7171 256.193 56.6576C257.262 55.5981 258.705 55.0025 260.21 55H453.31C454.812 55.0052 456.252 55.6022 457.317 56.6617C458.382 57.7212 458.987 59.1578 459 60.66V332.09C459 333.601 458.401 335.05 457.335 336.121C456.268 337.191 454.821 337.795 453.31 337.8ZM260.21 55.2C258.763 55.2026 257.375 55.7787 256.352 56.8021C255.329 57.8255 254.753 59.2127 254.75 60.66V332.09C254.753 333.537 255.329 334.924 256.352 335.948C257.375 336.971 258.763 337.547 260.21 337.55H453.31C454.757 337.547 456.145 336.971 457.168 335.948C458.191 334.924 458.767 333.537 458.77 332.09V60.66C458.767 59.2127 458.191 57.8255 457.168 56.8021C456.145 55.7787 454.757 55.2026 453.31 55.2H260.21Z" fill="#EBEBEB"/>
<path d="M435.97 382.4H467.67V326.28H435.97V382.4Z" fill="#B1BDDB"/>
<path d="M408.21 382.4H439.91V338.59H408.21V382.4Z" fill="#8B9DC8"/>
<path d="M387.94 382.4H419.64V302.49H387.94V382.4Z" fill="#F0F0F0"/>
<path d="M366.88 382.4H398.58V237.7H366.88V382.4Z" fill="#F0F0F0"/>
<path d="M288.48 382.4H373.54V248.96H288.48V382.4Z" fill="#F0F0F0"/>
<path d="M72.4499 332.18H27.5699V382.4H72.4499V332.18Z" fill="#B1BDDB"/>
<path d="M111.75 343.19H66.87V382.39H111.75V343.19Z" fill="#8B9DC8"/>
<path d="M140.45 310.89H95.5699V382.4H140.45V310.89Z" fill="#F5F5F5"/>
<path d="M170.28 252.91H125.4V382.4H170.28V252.91Z" fill="#F5F5F5"/>
<path d="M161.22 382.4H234.66L234.66 224.21H161.22V382.4Z" fill="#F0F0F0"/>
<path d="M168.2 250.1H171.7V230.85H168.2V250.1Z" fill="#F5F5F5"/>
<path d="M168.2 280.19H171.7V260.94H168.2V280.19Z" fill="#F5F5F5"/>
<path d="M168.2 310.3H171.7V291.05H168.2V310.3Z" fill="#F5F5F5"/>
<path d="M168.2 340.4H171.7V321.15H168.2V340.4Z" fill="#F5F5F5"/>
<path d="M168.2 370.5H171.7V351.25H168.2V370.5Z" fill="#F5F5F5"/>
<path d="M180.6 250.1H184.1V230.85H180.6V250.1Z" fill="#F5F5F5"/>
<path d="M180.6 280.19H184.1V260.94H180.6V280.19Z" fill="#F5F5F5"/>
<path d="M180.6 310.3H184.1V291.05H180.6V310.3Z" fill="#F5F5F5"/>
<path d="M180.6 340.4H184.1V321.15H180.6V340.4Z" fill="#F5F5F5"/>
<path d="M180.6 370.5H184.1V351.25H180.6V370.5Z" fill="#F5F5F5"/>
<path d="M192.99 250.1H196.49V230.85H192.99V250.1Z" fill="#F5F5F5"/>
<path d="M192.99 280.19H196.49V260.94H192.99V280.19Z" fill="#F5F5F5"/>
<path d="M192.99 310.3H196.49V291.05H192.99V310.3Z" fill="#F5F5F5"/>
<path d="M192.99 340.4H196.49V321.15H192.99V340.4Z" fill="#F5F5F5"/>
<path d="M192.99 370.5H196.49V351.25H192.99V370.5Z" fill="#F5F5F5"/>
<path d="M205.39 250.1H208.89V230.85H205.39V250.1Z" fill="#F5F5F5"/>
<path d="M205.39 280.19H208.89V260.94H205.39V280.19Z" fill="#F5F5F5"/>
<path d="M205.39 310.3H208.89V291.05H205.39V310.3Z" fill="#F5F5F5"/>
<path d="M205.39 340.4H208.89V321.15H205.39V340.4Z" fill="#F5F5F5"/>
<path d="M205.39 370.5H208.89V351.25H205.39V370.5Z" fill="#F5F5F5"/>
<path d="M217.77 250.1H221.27V230.85H217.77V250.1Z" fill="#F5F5F5"/>
<path d="M217.77 280.19H221.27V260.94H217.77V280.19Z" fill="#F5F5F5"/>
<path d="M217.77 310.3H221.27V291.05H217.77V310.3Z" fill="#F5F5F5"/>
<path d="M217.77 340.4H221.27V321.15H217.77V340.4Z" fill="#F5F5F5"/>
<path d="M217.77 370.5H221.27V351.25H217.77V370.5Z" fill="#F5F5F5"/>
<path opacity="0.5" d="M234.66 224.21H219.52L212.94 382.4H234.66V224.21Z" fill="#E0E0E0"/>
<path d="M355.86 115.17L266.77 125.33V382.4H355.86V115.17Z" fill="#F0F0F0"/>
<path d="M427.14 115.17H355.86V382.4H427.14V115.17Z" fill="#E6E6E6"/>
<path d="M427.14 137.31H266.77V138.68H427.14V137.31Z" fill="#E0E0E0"/>
<path d="M427.14 151.86H266.77V153.23H427.14V151.86Z" fill="#E0E0E0"/>
<path d="M427.14 166.41H266.77V167.78H427.14V166.41Z" fill="#E0E0E0"/>
<path d="M427.14 180.96H266.77V182.33H427.14V180.96Z" fill="#E0E0E0"/>
<path d="M427.14 195.51H266.77V196.88H427.14V195.51Z" fill="#E0E0E0"/>
<path d="M427.14 210.06H266.77V211.43H427.14V210.06Z" fill="#E0E0E0"/>
<path d="M427.14 224.61H266.77V225.98H427.14V224.61Z" fill="#E0E0E0"/>
<path d="M427.14 239.16H266.77V240.53H427.14V239.16Z" fill="#E0E0E0"/>
<path d="M427.14 253.71H266.77V255.08H427.14V253.71Z" fill="#E0E0E0"/>
<path d="M427.14 268.26H266.77V269.63H427.14V268.26Z" fill="#E0E0E0"/>
<path d="M427.14 282.81H266.77V284.18H427.14V282.81Z" fill="#E0E0E0"/>
<path d="M427.14 297.37H266.77V298.74H427.14V297.37Z" fill="#E0E0E0"/>
<path d="M427.14 311.92H266.77V313.29H427.14V311.92Z" fill="#E0E0E0"/>
<path d="M427.14 326.47H266.77V327.84H427.14V326.47Z" fill="#E0E0E0"/>
<path d="M427.14 341.02H266.77V342.39H427.14V341.02Z" fill="#E0E0E0"/>
<path d="M427.14 355.57H266.77V356.94H427.14V355.57Z" fill="#E0E0E0"/>
<path d="M427.14 370.12H266.77V371.49H427.14V370.12Z" fill="#E0E0E0"/>
<path d="M108.02 382.4H150.28L150.28 161.81H108.02L108.02 382.4Z" fill="#F0F0F0"/>
<path d="M108.02 161.81H150.28L134.73 142.33H74.21L108.02 161.81Z" fill="#FAFAFA"/>
<path d="M108.02 161.81L74.21 142.33V382.4H108.02V161.81Z" fill="#E6E6E6"/>
<path d="M74.22 173.26H150.28V172.09H74.22V173.26Z" fill="#E0E0E0"/>
<path d="M74.22 185.75H150.28V184.58H74.22V185.75Z" fill="#E0E0E0"/>
<path d="M74.22 198.24H150.28V197.07H74.22V198.24Z" fill="#E0E0E0"/>
<path d="M74.22 210.72H150.28V209.55H74.22V210.72Z" fill="#E0E0E0"/>
<path d="M74.22 223.21H150.28V222.04H74.22V223.21Z" fill="#E0E0E0"/>
<path d="M74.22 235.69H150.28V234.52H74.22V235.69Z" fill="#E0E0E0"/>
<path d="M74.22 248.18H150.28V247.01H74.22V248.18Z" fill="#E0E0E0"/>
<path d="M74.22 260.67H150.28V259.5H74.22V260.67Z" fill="#E0E0E0"/>
<path d="M74.22 273.15H150.28V271.98H74.22V273.15Z" fill="#E0E0E0"/>
<path d="M74.22 285.64H150.28V284.47H74.22V285.64Z" fill="#E0E0E0"/>
<path d="M74.22 298.12H150.28V296.95H74.22V298.12Z" fill="#E0E0E0"/>
<path d="M74.22 310.61H150.28V309.44H74.22V310.61Z" fill="#E0E0E0"/>
<path d="M74.22 323.09H150.28V321.92H74.22V323.09Z" fill="#E0E0E0"/>
<path d="M74.22 335.58H150.28V334.41H74.22V335.58Z" fill="#E0E0E0"/>
<path d="M74.22 348.07H150.28V346.9H74.22V348.07Z" fill="#E0E0E0"/>
<path d="M74.22 360.55H150.28V359.38H74.22V360.55Z" fill="#E0E0E0"/>
<path d="M74.22 373.04H150.28V371.87H74.22V373.04Z" fill="#E0E0E0"/>
<path d="M257.36 382.39H314.35V185.71H257.36V382.39Z" fill="#F0F0F0"/>
<path d="M293.97 227.45H303.12V195.88H293.97V227.45Z" fill="#E6E6E6"/>
<path d="M271.54 227.45H280.69V195.88H271.54V227.45Z" fill="#E6E6E6"/>
<path d="M293.97 268.33H303.12V236.76H293.97V268.33Z" fill="#E6E6E6"/>
<path d="M271.54 268.33H280.69V236.76H271.54V268.33Z" fill="#E6E6E6"/>
<path d="M293.97 309.21H303.12V277.64H293.97V309.21Z" fill="#E6E6E6"/>
<path d="M271.54 309.21H280.69V277.64H271.54V309.21Z" fill="#E6E6E6"/>
<path d="M293.97 350.09H303.12V318.52H293.97V350.09Z" fill="#E6E6E6"/>
<path d="M271.54 350.09H280.69V318.52H271.54V350.09Z" fill="#E6E6E6"/>
<path d="M257.35 185.72H314.34L300.98 172.09H243.99L257.35 185.72Z" fill="white"/>
<path d="M257.35 185.72L243.99 172.09L230.62 185.72V382.4H257.35V185.72Z" fill="#E6E6E6"/>
<path d="M190.26 149.92C205.426 149.92 217.72 137.626 217.72 122.46C217.72 107.294 205.426 95 190.26 95C175.094 95 162.8 107.294 162.8 122.46C162.8 137.626 175.094 149.92 190.26 149.92Z" fill="#FAFAFA"/>
<path d="M392.84 80.68C386.01 80.02 379.74 75.19 370.84 73.86C366.41 73.2 363.84 74.86 361.22 76.42C357.94 78.42 353.93 79.42 348.9 79.3C342.285 79.1239 335.737 77.923 329.49 75.74C323.85 73.82 317.96 71.52 313.49 72.35C305.2 73.87 304.96 79.35 298.1 80.13C291.24 80.91 289.99 84.61 295.68 84.61H399.9C404.88 84.61 399.68 81.33 392.84 80.68Z" fill="#D8DEED"/>
<path d="M98.89 79.54C96.01 81.23 90.32 80.21 80.98 78.75C75.5 77.9 72.78 79.65 68.98 81.22C67.46 81.86 60.78 84.05 69.5 84.05H118C131.44 84.05 118.94 81.65 116.79 80.72H116.68C110.25 77.86 101.76 77.86 98.89 79.54Z" fill="#D8DEED"/>
<path d="M130 117.84H183C187.64 117.84 182.8 114.78 176.43 114.17C170.06 113.56 164.22 109.06 155.89 107.82C147.56 106.58 147.34 113.32 136.4 113.25C127.56 113.21 121 117.84 130 117.84Z" fill="#D8DEED"/>
<path d="M250 427.56C357.082 427.56 443.89 422.492 443.89 416.24C443.89 409.988 357.082 404.92 250 404.92C142.917 404.92 56.11 409.988 56.11 416.24C56.11 422.492 142.917 427.56 250 427.56Z" fill="#7787AD"/>
<path d="M137.12 182.41C136.818 182.41 136.528 182.29 136.314 182.076C136.1 181.862 135.98 181.572 135.98 181.27V89.71C135.98 89.4077 136.1 89.1177 136.314 88.9039C136.528 88.6901 136.818 88.57 137.12 88.57C137.422 88.57 137.712 88.6901 137.926 88.9039C138.14 89.1177 138.26 89.4077 138.26 89.71V181.27C138.26 181.572 138.14 181.862 137.926 182.076C137.712 182.29 137.422 182.41 137.12 182.41Z" fill="#3D5BA4"/>
<path d="M167.64 182.41C167.338 182.41 167.048 182.29 166.834 182.076C166.62 181.862 166.5 181.572 166.5 181.27V89.71C166.485 89.5506 166.504 89.3899 166.554 89.2381C166.605 89.0864 166.687 88.9468 166.795 88.8285C166.903 88.7102 167.034 88.6157 167.18 88.551C167.327 88.4863 167.485 88.4529 167.645 88.4529C167.805 88.4529 167.963 88.4863 168.11 88.551C168.256 88.6157 168.387 88.7102 168.495 88.8285C168.603 88.9468 168.685 89.0864 168.736 89.2381C168.786 89.3899 168.805 89.5506 168.79 89.71V181.27C168.787 181.573 168.665 181.863 168.45 182.077C168.234 182.29 167.943 182.41 167.64 182.41Z" fill="#3D5BA4"/>
<path d="M167.64 121.37C167.337 121.371 167.046 121.252 166.83 121.04L152.38 106.59L137.93 121C137.71 121.185 137.428 121.28 137.141 121.267C136.854 121.254 136.582 121.135 136.379 120.931C136.175 120.728 136.056 120.456 136.043 120.169C136.03 119.882 136.125 119.6 136.31 119.38L150.76 105L136.31 90.52C136.136 90.3618 136.015 90.154 135.963 89.9247C135.91 89.6955 135.93 89.4557 136.018 89.2378C136.106 89.0198 136.259 88.8342 136.456 88.7058C136.653 88.5775 136.885 88.5126 137.12 88.52H167.64C167.867 88.5205 168.089 88.5882 168.277 88.7145C168.466 88.8409 168.613 89.0202 168.7 89.23C168.788 89.4396 168.811 89.6705 168.766 89.8932C168.721 90.1159 168.611 90.3203 168.45 90.48L154 105L168.45 119.45C168.63 119.606 168.756 119.814 168.812 120.045C168.868 120.276 168.85 120.519 168.76 120.74C168.671 120.96 168.515 121.147 168.314 121.275C168.113 121.402 167.877 121.463 167.64 121.45V121.37ZM139.88 90.85L152.38 103.35L164.88 90.85H139.88Z" fill="#3D5BA4"/>
<path d="M137.12 90.85C136.893 90.8516 136.671 90.7855 136.483 90.6604C136.294 90.5352 136.146 90.3566 136.059 90.1473C135.972 89.9381 135.95 89.7076 135.995 89.4855C136.039 89.2633 136.149 89.0595 136.31 88.9L151.57 73.64C151.676 73.533 151.802 73.448 151.941 73.39C152.08 73.332 152.229 73.3022 152.38 73.3022C152.531 73.3022 152.68 73.332 152.819 73.39C152.958 73.448 153.084 73.533 153.19 73.64L168.45 88.9C168.557 89.006 168.642 89.1322 168.7 89.2712C168.758 89.4102 168.788 89.5594 168.788 89.71C168.788 89.8606 168.758 90.0098 168.7 90.1488C168.642 90.2878 168.557 90.414 168.45 90.52C168.233 90.7313 167.943 90.8496 167.64 90.8496C167.337 90.8496 167.047 90.7313 166.83 90.52L152.38 76.07L137.93 90.52C137.714 90.7324 137.423 90.851 137.12 90.85Z" fill="#3D5BA4"/>
<path d="M198.16 90.85C197.857 90.8489 197.567 90.7306 197.35 90.52L182.9 76.07L168.45 90.52C168.233 90.7313 167.943 90.8496 167.64 90.8496C167.337 90.8496 167.047 90.7313 166.83 90.52C166.723 90.414 166.638 90.2878 166.58 90.1488C166.522 90.0098 166.492 89.8606 166.492 89.71C166.492 89.5594 166.522 89.4102 166.58 89.2712C166.638 89.1322 166.723 89.006 166.83 88.9L182.09 73.64C182.196 73.533 182.322 73.448 182.461 73.39C182.6 73.332 182.749 73.3022 182.9 73.3022C183.051 73.3022 183.2 73.332 183.339 73.39C183.478 73.448 183.604 73.533 183.71 73.64L199 88.9C199.161 89.0595 199.271 89.2633 199.316 89.4855C199.36 89.7076 199.338 89.9381 199.251 90.1473C199.164 90.3566 199.016 90.5352 198.827 90.6604C198.639 90.7855 198.417 90.8516 198.19 90.85H198.16Z" fill="#3D5BA4"/>
<path d="M198.16 90.85C197.858 90.8489 197.567 90.7306 197.35 90.52C197.243 90.414 197.158 90.2878 197.1 90.1488C197.042 90.0098 197.012 89.8606 197.012 89.71C197.012 89.5594 197.042 89.4102 197.1 89.2712C197.158 89.1322 197.243 89.006 197.35 88.9L212.61 73.64C212.716 73.533 212.842 73.448 212.981 73.39C213.12 73.332 213.269 73.3022 213.42 73.3022C213.571 73.3022 213.72 73.332 213.859 73.39C213.998 73.448 214.124 73.533 214.23 73.64L229.49 88.9C229.597 89.006 229.682 89.1322 229.74 89.2712C229.798 89.4102 229.828 89.5594 229.828 89.71C229.828 89.8606 229.798 90.0098 229.74 90.1488C229.682 90.2878 229.597 90.414 229.49 90.52C229.273 90.7313 228.983 90.8496 228.68 90.8496C228.377 90.8496 228.087 90.7313 227.87 90.52L213.42 76.07L199 90.52C198.889 90.6288 198.758 90.7141 198.614 90.7708C198.469 90.8276 198.315 90.8545 198.16 90.85Z" fill="#3D5BA4"/>
<path d="M137.12 151.89C136.893 151.892 136.671 151.826 136.483 151.7C136.294 151.575 136.146 151.397 136.059 151.187C135.972 150.978 135.95 150.748 135.995 150.525C136.039 150.303 136.149 150.099 136.31 149.94L166.83 119.42C167.05 119.235 167.332 119.14 167.619 119.153C167.906 119.166 168.178 119.285 168.381 119.489C168.585 119.692 168.704 119.964 168.717 120.251C168.73 120.538 168.635 120.82 168.45 121.04L137.93 151.56C137.714 151.772 137.423 151.891 137.12 151.89Z" fill="#3D5BA4"/>
<path d="M167.64 151.89C167.337 151.891 167.046 151.772 166.83 151.56L136.31 121C136.125 120.78 136.03 120.498 136.043 120.211C136.056 119.924 136.175 119.652 136.379 119.449C136.582 119.245 136.854 119.126 137.141 119.113C137.428 119.1 137.71 119.195 137.93 119.38L168.45 149.9C168.611 150.059 168.721 150.263 168.765 150.485C168.81 150.708 168.788 150.938 168.701 151.147C168.614 151.357 168.466 151.535 168.277 151.66C168.089 151.786 167.867 151.852 167.64 151.85V151.89Z" fill="#3D5BA4"/>
<path d="M167.64 182.41H137.12C136.894 182.412 136.672 182.346 136.483 182.221C136.295 182.097 136.147 181.919 136.06 181.71C135.975 181.5 135.953 181.27 135.998 181.048C136.042 180.825 136.151 180.621 136.31 180.46L150.76 166L136.31 151.55C136.125 151.33 136.03 151.048 136.043 150.761C136.056 150.474 136.175 150.202 136.379 149.999C136.582 149.795 136.854 149.676 137.141 149.663C137.428 149.65 137.71 149.745 137.93 149.93L152.38 164.38L166.83 149.93C167.05 149.745 167.332 149.65 167.619 149.663C167.906 149.676 168.178 149.795 168.381 149.999C168.585 150.202 168.704 150.474 168.717 150.761C168.73 151.048 168.634 151.33 168.45 151.55L154 166L168.45 180.45C168.611 180.609 168.721 180.813 168.765 181.035C168.81 181.258 168.788 181.488 168.701 181.697C168.614 181.907 168.466 182.085 168.277 182.21C168.088 182.336 167.867 182.402 167.64 182.4V182.41ZM139.88 180.13H164.88L152.38 167.63L139.88 180.13Z" fill="#263238"/>
<path d="M126.44 106.19H110.14L112.19 89.71H124.38L126.44 106.19Z" fill="#3D5BA4"/>
<path d="M126.44 107.33H110.14C109.978 107.33 109.818 107.296 109.67 107.23C109.522 107.165 109.389 107.069 109.28 106.95C109.175 106.827 109.095 106.684 109.047 106.529C108.999 106.374 108.983 106.211 109 106.05L111.06 89.57C111.094 89.2942 111.228 89.0404 111.436 88.8563C111.644 88.6721 111.912 88.5703 112.19 88.57H124.38C124.659 88.57 124.928 88.6715 125.138 88.8555C125.348 89.0395 125.484 89.2934 125.52 89.57L127.52 106.05C127.54 106.21 127.525 106.373 127.478 106.527C127.43 106.681 127.35 106.823 127.243 106.944C127.136 107.065 127.005 107.162 126.858 107.229C126.711 107.295 126.551 107.33 126.39 107.33H126.44ZM111.44 105.04H125.14L123.37 90.85H113.21L111.44 105.04Z" fill="#3D5BA4"/>
<path d="M228.68 90.85H107.56C107.401 90.8649 107.24 90.8464 107.088 90.7956C106.936 90.7449 106.797 90.663 106.678 90.5552C106.56 90.4474 106.466 90.3161 106.401 90.1697C106.336 90.0233 106.303 89.865 106.303 89.705C106.303 89.5449 106.336 89.3867 106.401 89.2403C106.466 89.0939 106.56 88.9626 106.678 88.8548C106.797 88.747 106.936 88.6651 107.088 88.6144C107.24 88.5636 107.401 88.5451 107.56 88.56H228.68C228.839 88.5451 229 88.5636 229.152 88.6144C229.304 88.6651 229.443 88.747 229.561 88.8548C229.68 88.9626 229.774 89.0939 229.839 89.2403C229.904 89.3867 229.937 89.5449 229.937 89.705C229.937 89.865 229.904 90.0233 229.839 90.1697C229.774 90.3161 229.68 90.4474 229.561 90.5552C229.443 90.663 229.304 90.7449 229.152 90.7956C229 90.8464 228.839 90.8649 228.68 90.85Z" fill="#263238"/>
<path d="M213.42 75.59H152.42C152.135 75.5633 151.87 75.4312 151.677 75.2194C151.484 75.0076 151.377 74.7315 151.377 74.445C151.377 74.1586 151.484 73.8824 151.677 73.6706C151.87 73.4589 152.135 73.3267 152.42 73.3H213.42C213.579 73.2851 213.74 73.3036 213.892 73.3544C214.044 73.4051 214.183 73.487 214.301 73.5948C214.42 73.7026 214.514 73.8339 214.579 73.9803C214.644 74.1267 214.677 74.285 214.677 74.445C214.677 74.6051 214.644 74.7634 214.579 74.9098C214.514 75.0562 214.42 75.1874 214.301 75.2952C214.183 75.403 214.044 75.4849 213.892 75.5356C213.74 75.5864 213.579 75.6049 213.42 75.59Z" fill="#3D5BA4"/>
<path d="M244.71 140.95H127.04C120.816 140.95 115.77 145.996 115.77 152.22V400.33C115.77 406.554 120.816 411.6 127.04 411.6H244.71C250.934 411.6 255.98 406.554 255.98 400.33V152.22C255.98 145.996 250.934 140.95 244.71 140.95Z" fill="#3D5BA4"/>
<path opacity="0.2" d="M244.71 140.95H127.04C120.816 140.95 115.77 145.996 115.77 152.22V400.33C115.77 406.554 120.816 411.6 127.04 411.6H244.71C250.934 411.6 255.98 406.554 255.98 400.33V152.22C255.98 145.996 250.934 140.95 244.71 140.95Z" fill="black"/>
<path d="M259.11 140.95H141.44C135.216 140.95 130.17 145.996 130.17 152.22V400.33C130.17 406.554 135.216 411.6 141.44 411.6H259.11C265.334 411.6 270.38 406.554 270.38 400.33V152.22C270.38 145.996 265.334 140.95 259.11 140.95Z" fill="#3D5BA4"/>
<path d="M265.68 400.33V152.21C265.68 148.582 262.738 145.64 259.11 145.64H141.43C137.801 145.64 134.86 148.582 134.86 152.21L134.86 400.33C134.86 403.959 137.801 406.9 141.43 406.9H259.11C262.738 406.9 265.68 403.959 265.68 400.33Z" fill="white"/>
<path opacity="0.1" d="M263.805 296.255L258.416 185.266C258.198 180.776 254.381 177.312 249.891 177.53L153.824 182.195C149.334 182.413 145.87 186.23 146.088 190.72L151.478 301.71C151.696 306.2 155.513 309.663 160.003 309.445L256.07 304.78C260.56 304.562 264.023 300.746 263.805 296.255Z" fill="black"/>
<path d="M261.93 158.48V153.78C261.93 151.361 259.969 149.4 257.55 149.4H143C140.581 149.4 138.62 151.361 138.62 153.78V158.48C138.62 160.899 140.581 162.86 143 162.86H257.55C259.969 162.86 261.93 160.899 261.93 158.48Z" fill="#3D5BA4"/>
<path d="M151.66 159.28C150.824 159.28 150.021 158.948 149.429 158.358C148.837 157.768 148.503 156.966 148.5 156.13C148.503 155.293 148.836 154.49 149.428 153.898C150.02 153.306 150.823 152.973 151.66 152.97C152.497 152.973 153.299 153.306 153.892 153.898C154.484 154.49 154.817 155.293 154.82 156.13C154.817 156.966 154.483 157.768 153.891 158.358C153.299 158.948 152.496 159.28 151.66 159.28Z" fill="white"/>
<path d="M161.05 159.28C160.214 159.28 159.411 158.948 158.819 158.358C158.227 157.768 157.893 156.966 157.89 156.13C157.893 155.293 158.226 154.49 158.818 153.898C159.411 153.306 160.213 152.973 161.05 152.97C161.886 152.973 162.688 153.307 163.278 153.899C163.868 154.491 164.2 155.294 164.2 156.13C164.197 156.965 163.865 157.764 163.274 158.354C162.684 158.945 161.885 159.277 161.05 159.28Z" fill="white"/>
<path d="M170.44 159.28C169.604 159.28 168.801 158.948 168.209 158.358C167.617 157.768 167.283 156.966 167.28 156.13C167.283 155.293 167.616 154.49 168.208 153.898C168.801 153.306 169.603 152.973 170.44 152.97C171.276 152.973 172.078 153.307 172.668 153.899C173.258 154.491 173.59 155.294 173.59 156.13C173.587 156.965 173.255 157.764 172.665 158.354C172.074 158.945 171.275 159.277 170.44 159.28Z" fill="white"/>
<path d="M253.14 152.21H248.76C247.81 152.21 247.04 152.98 247.04 153.93V158.31C247.04 159.26 247.81 160.03 248.76 160.03H253.14C254.09 160.03 254.86 159.26 254.86 158.31V153.93C254.86 152.98 254.09 152.21 253.14 152.21Z" fill="white"/>
<path d="M177.786 353.693C188.965 349.063 194.274 336.246 189.643 325.066C185.012 313.887 172.196 308.578 161.016 313.209C149.837 317.84 144.528 330.656 149.159 341.836C153.789 353.015 166.606 358.324 177.786 353.693Z" fill="#3D5BA4"/>
<path d="M247.61 323.49H204.89C204.164 323.487 203.469 323.198 202.955 322.685C202.442 322.171 202.153 321.476 202.15 320.75C202.153 320.024 202.442 319.329 202.955 318.815C203.469 318.302 204.164 318.013 204.89 318.01H247.61C248.337 318.01 249.034 318.299 249.548 318.813C250.061 319.326 250.35 320.023 250.35 320.75C250.35 321.477 250.061 322.174 249.548 322.687C249.034 323.201 248.337 323.49 247.61 323.49Z" fill="#3D5BA4"/>
<path d="M247.61 336.19H204.89C204.164 336.187 203.469 335.898 202.955 335.385C202.442 334.871 202.153 334.176 202.15 333.45C202.153 332.724 202.442 332.029 202.955 331.515C203.469 331.002 204.164 330.713 204.89 330.71H247.61C248.337 330.71 249.034 330.999 249.548 331.513C250.061 332.026 250.35 332.723 250.35 333.45C250.35 334.177 250.061 334.874 249.548 335.387C249.034 335.901 248.337 336.19 247.61 336.19Z" fill="#3D5BA4"/>
<path d="M247.61 343.41H204.89C203.377 343.41 202.15 344.637 202.15 346.15C202.15 347.663 203.377 348.89 204.89 348.89H247.61C249.123 348.89 250.35 347.663 250.35 346.15C250.35 344.637 249.123 343.41 247.61 343.41Z" fill="#3D5BA4"/>
<path d="M243.25 367.66H157.31C151.887 367.66 147.49 372.057 147.49 377.48V389.69C147.49 395.113 151.887 399.51 157.31 399.51H243.25C248.673 399.51 253.07 395.113 253.07 389.69V377.48C253.07 372.057 248.673 367.66 243.25 367.66Z" fill="#E0E0E0"/>
<path d="M275.637 288.223L266.996 177.439C266.646 172.957 262.73 169.607 258.248 169.957L162.359 177.436C157.877 177.786 154.527 181.702 154.877 186.184L163.518 296.968C163.867 301.45 167.784 304.8 172.266 304.45L268.155 296.971C272.637 296.622 275.987 292.705 275.637 288.223Z" fill="white"/>
<path d="M171.61 305C169.432 304.996 167.336 304.169 165.742 302.686C164.147 301.203 163.171 299.172 163.01 297L154.37 186.21C154.196 183.927 154.934 181.669 156.422 179.929C157.911 178.19 160.028 177.111 162.31 176.93L258.21 169.45C260.493 169.276 262.751 170.014 264.491 171.502C266.23 172.991 267.309 175.108 267.49 177.39L276.13 288.18C276.307 290.464 275.57 292.725 274.081 294.467C272.593 296.209 270.474 297.289 268.19 297.47L172.29 304.94C172.06 305 171.84 305 171.61 305ZM164.01 297C164.173 299.014 165.128 300.881 166.665 302.193C168.201 303.505 170.195 304.155 172.21 304L268.11 296.52C270.125 296.354 271.992 295.398 273.304 293.859C274.615 292.321 275.265 290.326 275.11 288.31L266.47 177.52C266.307 175.504 265.351 173.635 263.812 172.323C262.273 171.011 260.276 170.363 258.26 170.52L162.37 178C160.355 178.166 158.488 179.122 157.176 180.661C155.865 182.199 155.215 184.194 155.37 186.21L164.01 297Z" fill="#3D5BA4"/>
<path d="M271.468 286.26L269.552 261.705C269.276 258.164 266.182 255.518 262.642 255.794L171.319 262.917C167.779 263.193 165.132 266.287 165.409 269.828L167.324 294.383C167.6 297.924 170.694 300.57 174.234 300.294L265.557 293.171C269.097 292.895 271.744 289.801 271.468 286.26Z" fill="#3D5BA4"/>
<path opacity="0.2" d="M217.296 249.029L212.23 184.086C211.951 180.502 208.818 177.823 205.234 178.102L165.036 181.238C161.451 181.517 158.772 184.65 159.052 188.234L164.117 253.177C164.397 256.761 167.529 259.441 171.114 259.161L211.312 256.026C214.896 255.746 217.575 252.613 217.296 249.029Z" fill="#3D5BA4"/>
<path opacity="0.2" d="M263.616 189.878L262.757 178.861C262.532 175.982 260.016 173.829 257.136 174.054L222.691 176.741C219.811 176.965 217.658 179.482 217.883 182.361L218.742 193.378C218.967 196.258 221.484 198.41 224.363 198.185L258.809 195.499C261.688 195.274 263.841 192.758 263.616 189.878Z" fill="#3D5BA4"/>
<path opacity="0.4" d="M265.813 218.117L264.953 207.101C264.729 204.221 262.212 202.069 259.333 202.293L224.887 204.98C222.008 205.205 219.855 207.721 220.08 210.601L220.939 221.617C221.164 224.497 223.68 226.649 226.56 226.425L261.005 223.738C263.885 223.513 266.037 220.997 265.813 218.117Z" fill="#3D5BA4"/>
<path opacity="0.6" d="M268.019 246.357L267.16 235.34C266.936 232.46 264.419 230.308 261.539 230.533L227.094 233.219C224.214 233.444 222.062 235.96 222.286 238.84L223.146 249.857C223.37 252.736 225.887 254.889 228.767 254.664L263.212 251.977C266.092 251.753 268.244 249.236 268.019 246.357Z" fill="#3D5BA4"/>
<path d="M226.25 156.64C226.115 156.64 225.985 156.586 225.889 156.491C225.794 156.395 225.74 156.265 225.74 156.13V89.71C225.725 89.636 225.727 89.5596 225.745 89.4863C225.763 89.4131 225.798 89.3448 225.845 89.2864C225.893 89.228 225.953 89.1809 226.022 89.1486C226.09 89.1163 226.164 89.0995 226.24 89.0995C226.315 89.0995 226.39 89.1163 226.458 89.1486C226.526 89.1809 226.587 89.228 226.635 89.2864C226.682 89.3448 226.717 89.4131 226.735 89.4863C226.753 89.5596 226.755 89.636 226.74 89.71V156.13C226.74 156.262 226.689 156.389 226.598 156.484C226.506 156.579 226.382 156.635 226.25 156.64Z" fill="#263238"/>
<path d="M232.6 167H219.9C219.394 166.999 218.902 166.836 218.496 166.533C218.091 166.23 217.794 165.805 217.65 165.32L214.92 156.04C214.819 155.691 214.801 155.323 214.867 154.966C214.933 154.608 215.08 154.271 215.298 153.98C215.516 153.689 215.799 153.453 216.124 153.29C216.448 153.127 216.807 153.041 217.17 153.04H235.33C235.693 153.041 236.052 153.127 236.376 153.29C236.701 153.453 236.984 153.689 237.202 153.98C237.42 154.271 237.567 154.608 237.633 154.966C237.699 155.323 237.68 155.691 237.58 156.04L234.85 165.32C234.707 165.806 234.411 166.232 234.005 166.535C233.599 166.838 233.106 167.001 232.6 167Z" fill="#263238"/>
<path d="M226.25 181.38C225.948 181.38 225.658 181.26 225.444 181.046C225.23 180.832 225.11 180.542 225.11 180.24C225.11 179.938 225.23 179.648 225.444 179.434C225.658 179.22 225.948 179.1 226.25 179.1C227.311 179.1 228.328 178.679 229.078 177.928C229.829 177.178 230.25 176.161 230.25 175.1C230.25 174.039 229.829 173.022 229.078 172.272C228.328 171.521 227.311 171.1 226.25 171.1C225.948 171.1 225.658 170.98 225.444 170.766C225.23 170.552 225.11 170.262 225.11 169.96V167C225.137 166.715 225.269 166.45 225.481 166.257C225.692 166.064 225.969 165.957 226.255 165.957C226.541 165.957 226.818 166.064 227.029 166.257C227.241 166.45 227.373 166.715 227.4 167V168.91C228.935 169.201 230.306 170.054 231.246 171.301C232.186 172.549 232.627 174.102 232.483 175.658C232.34 177.213 231.621 178.659 230.469 179.714C229.316 180.768 227.812 181.355 226.25 181.36V181.38Z" fill="#263238"/>
<path d="M402.72 196.57C403.99 199.5 405.03 202.28 406.05 205.2C407.07 208.12 408 211 408.79 214C409.655 217.062 410.349 220.171 410.87 223.31C411.165 224.988 411.372 226.68 411.49 228.38C411.642 230.38 411.592 232.39 411.34 234.38L411.28 234.79C411.252 234.986 411.209 235.18 411.15 235.37C410.251 238.105 409.172 240.777 407.92 243.37C406.75 245.88 405.42 248.25 404.1 250.6C402.78 252.95 401.34 255.2 399.85 257.43C398.36 259.66 396.85 261.82 395.15 263.97C394.583 264.679 393.785 265.166 392.895 265.347C392.006 265.528 391.081 265.391 390.282 264.96C389.482 264.53 388.859 263.833 388.521 262.99C388.183 262.148 388.151 261.214 388.43 260.35V260.26C389.23 257.85 390.12 255.39 390.97 252.97C391.82 250.55 392.7 248.15 393.51 245.75C394.32 243.35 395.13 240.96 395.85 238.63C396.57 236.3 397.2 233.96 397.64 231.83L397.45 232.83C397.429 231.867 397.332 230.908 397.16 229.96C396.96 228.81 396.71 227.55 396.39 226.28C396.07 225.01 395.72 223.71 395.33 222.4C394.94 221.09 394.54 219.77 394.1 218.4C393.22 215.75 392.31 213.07 391.34 210.4L388.41 202.47L388.36 202.33C387.598 200.43 387.621 198.304 388.426 196.422C389.23 194.539 390.75 193.052 392.65 192.29C394.55 191.527 396.676 191.551 398.559 192.356C400.441 193.16 401.928 194.68 402.69 196.58L402.72 196.57Z" fill="#3D5BA4"/>
<path opacity="0.7" d="M402.72 196.57C403.99 199.5 405.03 202.28 406.05 205.2C407.07 208.12 408 211 408.79 214C409.655 217.062 410.349 220.171 410.87 223.31C411.165 224.988 411.372 226.68 411.49 228.38C411.642 230.38 411.592 232.39 411.34 234.38L411.28 234.79C411.252 234.986 411.209 235.18 411.15 235.37C410.251 238.105 409.172 240.777 407.92 243.37C406.75 245.88 405.42 248.25 404.1 250.6C402.78 252.95 401.34 255.2 399.85 257.43C398.36 259.66 396.85 261.82 395.15 263.97C394.583 264.679 393.785 265.166 392.895 265.347C392.006 265.528 391.081 265.391 390.282 264.96C389.482 264.53 388.859 263.833 388.521 262.99C388.183 262.148 388.151 261.214 388.43 260.35V260.26C389.23 257.85 390.12 255.39 390.97 252.97C391.82 250.55 392.7 248.15 393.51 245.75C394.32 243.35 395.13 240.96 395.85 238.63C396.57 236.3 397.2 233.96 397.64 231.83L397.45 232.83C397.429 231.867 397.332 230.908 397.16 229.96C396.96 228.81 396.71 227.55 396.39 226.28C396.07 225.01 395.72 223.71 395.33 222.4C394.94 221.09 394.54 219.77 394.1 218.4C393.22 215.75 392.31 213.07 391.34 210.4L388.41 202.47L388.36 202.33C387.598 200.43 387.621 198.304 388.426 196.422C389.23 194.539 390.75 193.052 392.65 192.29C394.55 191.527 396.676 191.551 398.559 192.356C400.441 193.16 401.928 194.68 402.69 196.58L402.72 196.57Z" fill="white"/>
<path d="M388.89 259L383.78 261.68L390.93 269.11C392.299 268.133 393.522 266.964 394.56 265.64C395.262 264.691 395.562 263.503 395.393 262.335C395.225 261.166 394.602 260.112 393.66 259.4C392.984 258.889 392.177 258.58 391.333 258.51C390.489 258.439 389.642 258.609 388.89 259Z" fill="#7F3E3B"/>
<path d="M381 270.19L383.95 272.37C384.519 272.788 385.216 272.992 385.921 272.946C386.625 272.9 387.29 272.608 387.8 272.12L390.89 269.12L383.74 261.69L380.46 266C379.979 266.628 379.766 267.421 379.867 268.206C379.969 268.991 380.376 269.704 381 270.19Z" fill="#7F3E3B"/>
<path d="M307.44 211.63L302.17 204.83L296.12 213.18C296.12 213.18 301.64 218.75 305.07 216.3L307.44 211.63Z" fill="#7F3E3B"/>
<path d="M293.32 203.64L291.69 206.92C291.378 207.554 291.301 208.279 291.471 208.965C291.641 209.651 292.048 210.255 292.62 210.67L296.12 213.18L302.17 204.83L297.37 202.32C297.018 202.139 296.633 202.03 296.238 201.998C295.844 201.967 295.447 202.014 295.07 202.136C294.694 202.259 294.345 202.455 294.045 202.713C293.744 202.971 293.498 203.286 293.32 203.64Z" fill="#7F3E3B"/>
<path d="M394.86 417.14H388.52L387.74 416.41L386.57 417.14C382.7 417.14 377.48 417 374.99 416.14C374.918 415.849 374.927 415.544 375.017 415.258C375.107 414.973 375.274 414.717 375.5 414.52C375.5 414.52 385.75 411.35 386.67 409.22H394.44" fill="#263238"/>
<path d="M387 327.49C385.73 294.71 387.8 268.8 384.69 256.23L355.69 251.54C355.69 251.54 361.03 307.07 367.45 330.04C373.87 353.01 385.45 409.74 385.45 409.74H395.32C395.32 409.74 395.56 354.39 387 327.49Z" fill="#3D5BA4"/>
<path opacity="0.2" d="M366 279L360.61 293C362.33 305.25 364.39 317.78 366.61 326.78C369 310.44 367.27 283.64 366 279Z" fill="black"/>
<path d="M312.72 407.74C312.72 407.74 327.31 408.85 328.91 407.09L336.56 409.44L334.42 417.14L329.7 415.7L329.17 414.77L327.79 415.11C323.97 413.94 313.87 410.69 311.69 409.11C311.721 408.81 311.833 408.523 312.015 408.282C312.196 408.04 312.44 407.853 312.72 407.74Z" fill="#263238"/>
<path d="M356.33 329.48C366.084 305.558 372.543 280.421 375.53 254.76L343.87 249.58C343.87 249.58 339.17 306.85 337.12 330.39C335 354.86 326.77 407 326.77 407L337 410.1C337 410.1 355.27 359.92 356.33 329.48Z" fill="#3D5BA4"/>
<path d="M387.35 166.05C385.49 172.05 384.35 180.74 386.15 185.65C382.65 188.07 377.15 190.89 370.48 189.82C363.81 188.75 365.71 184.42 367.83 182.36C372.96 180.65 373.5 178.24 372.65 175.93L387.35 166.05Z" fill="#7F3E3B"/>
<path d="M392.15 188.05C390.593 186.179 388.895 184.431 387.07 182.82C385.51 181.74 372.56 180.13 369.47 180.24C366.38 180.35 362.09 184.3 362.09 184.3L392.15 188.05Z" fill="#3D5BA4"/>
<path opacity="0.7" d="M392.15 188.05C390.593 186.179 388.895 184.431 387.07 182.82C385.51 181.74 372.56 180.13 369.47 180.24C366.38 180.35 362.09 184.3 362.09 184.3L392.15 188.05Z" fill="white"/>
<path d="M370 158.88C369.8 159.47 369.33 159.88 368.95 159.72C368.57 159.56 368.4 159 368.6 158.4C368.8 157.8 369.27 157.4 369.65 157.57C370.03 157.74 370.2 158.29 370 158.88Z" fill="#263238"/>
<path d="M369.77 159.72C368.469 161.29 366.958 162.673 365.28 163.83C365.587 164.256 365.983 164.609 366.441 164.867C366.899 165.124 367.407 165.279 367.93 165.32L369.77 159.72Z" fill="#630F0F"/>
<path d="M370 154.79C370.024 154.846 370.063 154.894 370.112 154.929C370.161 154.965 370.22 154.986 370.28 154.99C370.737 155.036 371.176 155.19 371.562 155.439C371.947 155.687 372.269 156.023 372.5 156.42C372.519 156.464 372.547 156.503 372.582 156.535C372.617 156.568 372.658 156.593 372.703 156.609C372.748 156.624 372.796 156.631 372.844 156.628C372.891 156.625 372.938 156.612 372.98 156.59C373.067 156.547 373.134 156.471 373.165 156.38C373.197 156.288 373.192 156.188 373.15 156.1C372.869 155.592 372.469 155.16 371.985 154.84C371.501 154.52 370.947 154.321 370.37 154.26C370.305 154.256 370.241 154.269 370.183 154.298C370.124 154.326 370.074 154.369 370.037 154.422C370 154.475 369.977 154.537 369.971 154.601C369.964 154.666 369.974 154.731 370 154.79Z" fill="#263238"/>
<path d="M390.53 163.93C387.68 171.05 386.38 175.37 381.53 177.86C374.16 181.61 366.29 175.23 366.95 167.38C367.54 160.32 372.09 149.86 380.15 149.38C381.931 149.28 383.709 149.632 385.318 150.404C386.926 151.176 388.313 152.342 389.35 153.795C390.386 155.247 391.037 156.938 391.244 158.71C391.45 160.483 391.205 162.278 390.53 163.93Z" fill="#7F3E3B"/>
<path d="M374.52 164.16C374.325 165.773 374.471 167.409 374.949 168.962C375.426 170.515 376.224 171.951 377.291 173.176C378.358 174.401 379.67 175.389 381.143 176.075C382.615 176.762 384.216 177.131 385.84 177.16C393 177.16 393.11 166.96 391.84 164.61C395.64 163.95 397.84 158.73 395.52 155.43C399.01 152.69 390.94 148.53 381.12 147.99C370.29 147.39 372.27 153.77 375.88 155.7C372.41 156.73 372.05 162.91 374.52 164.16Z" fill="#263238"/>
<path d="M372.44 150.72C372.44 150.72 373.13 159.11 380.18 164.16C387.23 169.21 393.5 169.68 393.5 169.68L395.24 164.16C395.24 164.16 379.32 154.57 373.94 149.21C373.411 149.683 372.91 150.187 372.44 150.72Z" fill="#3D5BA4"/>
<path opacity="0.6" d="M372.44 150.72C372.44 150.72 373.13 159.11 380.18 164.16C387.23 169.21 393.5 169.68 393.5 169.68L395.24 164.16C395.24 164.16 379.32 154.57 373.94 149.21C373.411 149.683 372.91 150.187 372.44 150.72Z" fill="white"/>
<path d="M378.26 164.26C377.34 165.614 375.938 166.565 374.34 166.92C372.34 167.31 371.7 165.27 372.59 163.3C373.39 161.53 375.41 159.19 377.28 159.69C379.15 160.19 379.46 162.54 378.26 164.26Z" fill="#7F3E3B"/>
<path d="M391.84 187.15C381.7 184.36 367.03 182.34 357.05 182.61C354.581 182.686 352.208 183.58 350.302 185.151C348.396 186.722 347.066 188.881 346.52 191.29C343.14 205.95 342.62 232.37 341.64 258.9C363.4 269.9 387.77 265.54 387.77 265.54C389.06 260.35 388.77 242.68 388.32 233.2C391.02 223.88 395.91 213.47 399.62 201.11C400.043 199.683 400.176 198.185 400.012 196.706C399.848 195.226 399.39 193.794 398.666 192.494C397.941 191.194 396.964 190.051 395.792 189.133C394.62 188.216 393.276 187.541 391.84 187.15Z" fill="#3D5BA4"/>
<path opacity="0.7" d="M391.84 187.15C381.7 184.36 367.03 182.34 357.05 182.61C354.581 182.686 352.208 183.58 350.302 185.151C348.396 186.722 347.066 188.881 346.52 191.29C343.14 205.95 342.62 232.37 341.64 258.9C363.4 269.9 387.77 265.54 387.77 265.54C389.06 260.35 388.77 242.68 388.32 233.2C391.02 223.88 395.91 213.47 399.62 201.11C400.043 199.683 400.176 198.185 400.012 196.706C399.848 195.226 399.39 193.794 398.666 192.494C397.941 191.194 396.964 190.051 395.792 189.133C394.62 188.216 393.276 187.541 391.84 187.15Z" fill="white"/>
<path d="M359.86 181.14C351.5 180.66 346.3 184.79 344.17 197.41C342.04 210.03 339.74 238.64 340.63 248.96C368.7 260.77 386.11 255.96 389.86 253.21C391.33 250.96 390.79 243.97 390.05 241.21C391.929 236.253 392.868 230.99 392.82 225.69C396.98 221.69 398.82 214.02 398.96 211.04C402.62 206.16 403.11 195.11 401.08 191.96C399.05 188.81 393.15 183 359.86 181.14Z" fill="#263238"/>
<path opacity="0.2" d="M344.66 251.07C344.527 251.07 344.4 251.017 344.306 250.924C344.213 250.83 344.16 250.703 344.16 250.57C344.16 230.29 346.87 200.38 350.68 189.89C350.725 189.765 350.818 189.664 350.938 189.608C351.058 189.551 351.195 189.545 351.32 189.59C351.383 189.611 351.44 189.645 351.489 189.689C351.539 189.733 351.578 189.786 351.606 189.846C351.634 189.906 351.65 189.971 351.652 190.037C351.655 190.103 351.644 190.168 351.62 190.23C348.21 199.62 345.18 227.82 345.16 250.57C345.16 250.636 345.147 250.701 345.122 250.761C345.097 250.822 345.06 250.877 345.014 250.924C344.967 250.97 344.912 251.007 344.851 251.032C344.791 251.057 344.726 251.07 344.66 251.07Z" fill="white"/>
<path d="M359.72 195C358.2 197.77 356.66 200.24 355 202.79C353.34 205.34 351.6 207.79 349.7 210.21C347.789 212.715 345.732 215.106 343.54 217.37C342.362 218.599 341.113 219.757 339.8 220.84C338.267 222.138 336.589 223.256 334.8 224.17L334.44 224.35C334.259 224.438 334.072 224.511 333.88 224.57C330.878 225.453 327.736 225.758 324.62 225.47C323.228 225.362 321.844 225.158 320.48 224.86C319.174 224.593 317.882 224.259 316.61 223.86C314.171 223.077 311.797 222.104 309.51 220.95C308.38 220.38 307.29 219.77 306.21 219.13C305.13 218.49 304.13 217.83 303 217.01C302.275 216.488 301.754 215.731 301.524 214.868C301.295 214.005 301.372 213.089 301.743 212.276C302.113 211.464 302.754 210.805 303.555 210.411C304.357 210.018 305.271 209.915 306.14 210.12L306.48 210.2L309.61 210.93C310.67 211.18 311.74 211.4 312.8 211.6C314.863 212.007 316.946 212.307 319.04 212.5C320.953 212.674 322.877 212.674 324.79 212.5C326.316 212.385 327.811 212.01 329.21 211.39L328.29 211.8C329.005 211.275 329.674 210.689 330.29 210.05C331.06 209.26 331.89 208.36 332.69 207.4C333.49 206.44 334.29 205.4 335.07 204.35C335.85 203.3 336.66 202.21 337.43 201.09C338.96 198.87 340.49 196.58 341.98 194.25C343.47 191.92 344.98 189.51 346.36 187.25L346.43 187.13C346.947 186.257 347.63 185.495 348.442 184.887C349.253 184.278 350.176 183.835 351.159 183.584C352.141 183.332 353.164 183.276 354.168 183.42C355.172 183.563 356.137 183.903 357.01 184.42C357.883 184.937 358.645 185.62 359.253 186.432C359.862 187.243 360.305 188.166 360.556 189.149C360.808 190.131 360.864 191.154 360.72 192.158C360.577 193.161 360.237 194.127 359.72 195Z" fill="#3D5BA4"/>
<path opacity="0.7" d="M359.72 195C358.2 197.77 356.66 200.24 355 202.79C353.34 205.34 351.6 207.79 349.7 210.21C347.789 212.715 345.732 215.106 343.54 217.37C342.362 218.599 341.113 219.757 339.8 220.84C338.267 222.138 336.589 223.256 334.8 224.17L334.44 224.35C334.259 224.438 334.072 224.511 333.88 224.57C330.878 225.453 327.736 225.758 324.62 225.47C323.228 225.362 321.844 225.158 320.48 224.86C319.174 224.593 317.882 224.259 316.61 223.86C314.171 223.077 311.797 222.104 309.51 220.95C308.38 220.38 307.29 219.77 306.21 219.13C305.13 218.49 304.13 217.83 303 217.01C302.275 216.488 301.754 215.731 301.524 214.868C301.295 214.005 301.372 213.089 301.743 212.276C302.113 211.464 302.754 210.805 303.555 210.411C304.357 210.018 305.271 209.915 306.14 210.12L306.48 210.2L309.61 210.93C310.67 211.18 311.74 211.4 312.8 211.6C314.863 212.007 316.946 212.307 319.04 212.5C320.953 212.674 322.877 212.674 324.79 212.5C326.316 212.385 327.811 212.01 329.21 211.39L328.29 211.8C329.005 211.275 329.674 210.689 330.29 210.05C331.06 209.26 331.89 208.36 332.69 207.4C333.49 206.44 334.29 205.4 335.07 204.35C335.85 203.3 336.66 202.21 337.43 201.09C338.96 198.87 340.49 196.58 341.98 194.25C343.47 191.92 344.98 189.51 346.36 187.25L346.43 187.13C346.947 186.257 347.63 185.495 348.442 184.887C349.253 184.278 350.176 183.835 351.159 183.584C352.141 183.332 353.164 183.276 354.168 183.42C355.172 183.563 356.137 183.903 357.01 184.42C357.883 184.937 358.645 185.62 359.253 186.432C359.862 187.243 360.305 188.166 360.556 189.149C360.808 190.131 360.864 191.154 360.72 192.158C360.577 193.161 360.237 194.127 359.72 195Z" fill="white"/>
<path d="M395.38 167.67C395.251 167.797 395.089 167.886 394.913 167.928C394.737 167.971 394.553 167.964 394.38 167.91C388.758 165.761 383.583 162.588 379.12 158.55C371.55 151.61 370.9 143.66 374.26 147.46C376.12 145.46 384.02 143.02 391.34 146.19C399.08 149.56 402.81 160 395.38 167.67Z" fill="#3D5BA4"/>
<path d="M388.91 145.35C390.814 147.157 392.178 149.458 392.849 151.996C393.52 154.534 393.472 157.208 392.71 159.72C394.338 159.367 395.903 158.766 397.35 157.94C397.35 157.94 398.52 152.33 396.35 148.72C394.18 145.11 389.38 144.2 388.91 145.35Z" fill="#3D5BA4"/>
<path opacity="0.2" d="M392.71 159.72C393.472 157.208 393.52 154.534 392.849 151.996C392.178 149.458 390.814 147.157 388.91 145.35C388.974 145.238 389.063 145.142 389.171 145.071C389.279 144.999 389.402 144.955 389.53 144.94C391.05 145.92 395.24 151.87 392.71 159.72Z" fill="black"/>
</svg>
